<svg xmlns="http://www.w3.org/2000/svg" viewBox="0 0 500 500"><g id="freepik--background-complete--inject-2"><path d="M122,408.34c20.51-17.86,22.34-46.9,18.57-72.39-.63-4.26-.66-8.81-3.14-12.32s-7.57-5.53-11.25-3.29c-3,1.85-4,5.7-5.48,9A25.39,25.39,0,0,1,111.58,340c-2.59,1.72-5.9,3-8.79,1.8-4-1.61-5-6.65-5.43-10.9Q96.09,319,94.83,307.15c-.46-4.25-.93-8.59-2.73-12.47s-5.17-7.29-9.39-8-9,2.24-9.42,6.5c-.16,1.77.4,3.53.48,5.3s-.54,3.82-2.18,4.51-3.52-.32-5-1.41c-4.92-3.79-8.56-9-12-14.15S47.83,277,43.28,272.76s-10.56-7.29-16.76-6.94-12.35,4.86-13.23,11,3.34,11.84,7.74,16.25a96.26,96.26,0,0,0,22.13,16.55c1.46.79,3.05,1.65,3.75,3.17,1.25,2.72-1.15,5.85-3.88,7.1-3.09,1.42-6.61,1.48-9.92,2.25s-6.78,2.65-7.7,5.92c-1.27,4.55,2.92,8.68,6.88,11.25a83.14,83.14,0,0,0,25.92,11.11c3.3.79,6.74,1.41,9.54,3.32s4.78,5.54,3.57,8.71-5,4.58-8.44,4.35-6.55-1.67-9.85-2.49c-6.16-1.53-13.75-.26-17,5.21-2.12,3.6-1.81,8.24-.11,12.05s4.64,6.93,7.71,9.76c10.72,9.9,23.85,17.36,38.1,20.5s27.11,3,40.19-3.5" style="fill:#ebebeb"></path><path d="M113.38,393.08a379.6,379.6,0,0,0-19.93-39.23c-2-3.38-3.87-6.73-5.76-10s-3.78-6.54-5.82-9.61a193.34,193.34,0,0,0-12.75-17c-4.32-5.21-8.61-10-12.66-14.44s-7.92-8.51-11.6-12.07a153.15,153.15,0,0,0-18.61-15.51c-2.33-1.66-4.18-2.88-5.45-3.7l-1.44-.92c-.33-.2-.51-.29-.51-.29l.47.35,1.41,1c1.24.85,3.07,2.11,5.38,3.79a160.5,160.5,0,0,1,18.43,15.64c3.65,3.57,7.49,7.65,11.52,12.1s8.3,9.26,12.6,14.46a193.4,193.4,0,0,1,12.68,17c2,3.06,3.89,6.29,5.79,9.58s3.81,6.64,5.76,10a387.25,387.25,0,0,1,20,39.15" style="fill:#e0e0e0"></path><path d="M81.7,334.17a10.75,10.75,0,0,0,.19-1.86c.08-1.2.15-2.94.21-5.08.11-4.3.08-10.24,0-16.8s0-12.48.23-16.76c.1-2.15.2-3.88.29-5.08a11,11,0,0,0,.06-1.87,9.28,9.28,0,0,0-.31,1.85c-.17,1.19-.34,2.92-.5,5.07-.33,4.29-.47,10.24-.42,16.8s.12,12.37.16,16.78c0,2.06,0,3.77,0,5.09A9.35,9.35,0,0,0,81.7,334.17Z" style="fill:#e0e0e0"></path><path d="M25.21,330.25a2.17,2.17,0,0,0,.58,0l1.66,0c1.43-.05,3.51-.12,6.07-.12,5.13-.05,12.22.14,20,.69s14.85,1.39,19.93,2.13c2.54.36,4.59.7,6,.94l1.63.26c.37.05.57.07.58,0a2.18,2.18,0,0,0-.55-.17l-1.62-.38c-1.4-.31-3.44-.72-6-1.14-5.07-.86-12.12-1.75-19.95-2.32s-14.94-.67-20.09-.51c-2.57.07-4.64.21-6.08.33l-1.65.17A2,2,0,0,0,25.21,330.25Z" style="fill:#e0e0e0"></path><path d="M112.65,392.13a3.14,3.14,0,0,0,.29-.72c.19-.54.42-1.23.71-2.08.62-1.82,1.44-4.46,2.41-7.75,2-6.56,4.36-15.7,6.9-25.83s4.88-19.28,6.71-25.87c.92-3.23,1.67-5.87,2.21-7.79.24-.87.44-1.57.59-2.13a3.59,3.59,0,0,0,.17-.75,3.47,3.47,0,0,0-.29.72c-.18.54-.42,1.23-.71,2.08-.61,1.82-1.43,4.46-2.4,7.74-2,6.57-4.37,15.71-6.91,25.84s-4.88,19.28-6.71,25.87c-.92,3.23-1.66,5.87-2.21,7.79-.24.87-.44,1.57-.59,2.13A3.59,3.59,0,0,0,112.65,392.13Z" style="fill:#e0e0e0"></path><path d="M36.48,377.09a3.93,3.93,0,0,0,.77.2l2.22.45,8.16,1.6c6.89,1.36,16.39,3.35,26.87,5.58s20,4.16,26.92,5.41c3.46.62,6.26,1.1,8.21,1.4l2.24.33a3.52,3.52,0,0,0,.78.07,3.66,3.66,0,0,0-.76-.2l-2.22-.45-8.16-1.6c-6.89-1.36-16.39-3.36-26.88-5.59s-20-4.16-26.91-5.4c-3.46-.63-6.27-1.11-8.21-1.4l-2.24-.33A2.93,2.93,0,0,0,36.48,377.09Z" style="fill:#e0e0e0"></path><path d="M405.42,77.48a4.23,4.23,0,0,0,.73.08l2.16.16a23.75,23.75,0,0,1,3.48.47c.68.13,1.43.19,2.19.41l2.46.69a40.32,40.32,0,0,1,11.69,5.79,41.4,41.4,0,0,1,11.49,12.8,43.11,43.11,0,0,1,4,9.2,46.33,46.33,0,0,1,1.66,16.49c-.05,1-.26,1.93-.39,2.92a21.27,21.27,0,0,1-.55,2.93,41.59,41.59,0,0,1-4.44,11.5,40.93,40.93,0,0,1-19.3,17.54A37.74,37.74,0,0,1,407,161.52a36.72,36.72,0,0,1-14.21-2.05l-1.39-.51-.19-.07-.16.09-20,10.14.59.51c2.14-6.62,4.21-13,6.19-19.21l.08-.23-.18-.18a42.75,42.75,0,0,1-10.49-17.45A43.87,43.87,0,0,1,365.75,114,42.78,42.78,0,0,1,380,87.2,44.38,44.38,0,0,1,389.84,81a43.62,43.62,0,0,1,8.29-2.61l3.11-.53,2.3-.16,1.4-.11a3,3,0,0,0,.48-.06,3.47,3.47,0,0,0-.48,0l-1.41,0-2.31.09-3.14.47a41.72,41.72,0,0,0-8.4,2.52,44,44,0,0,0-10,6.22A43,43,0,0,0,370.47,98a43.49,43.49,0,0,0-5.41,16,44.38,44.38,0,0,0,1.48,18.89,43.4,43.4,0,0,0,10.65,17.8l-.1-.42c-2,6.16-4.08,12.58-6.22,19.2l-.31,1,.9-.46,20-10.14-.35,0,1.42.52a37.55,37.55,0,0,0,14.52,2.09A38.27,38.27,0,0,0,421,159.23a42.49,42.49,0,0,0,24.14-29.64,22.15,22.15,0,0,0,.56-3c.12-1,.33-2,.38-3a45.68,45.68,0,0,0,.08-5.84,42.33,42.33,0,0,0-6-20.22,41.87,41.87,0,0,0-11.74-12.88A40.14,40.14,0,0,0,416.54,79l-2.49-.65c-.78-.22-1.53-.26-2.22-.39a23.77,23.77,0,0,0-3.51-.38l-2.17-.07A4.49,4.49,0,0,0,405.42,77.48Z" style="fill:#ebebeb"></path><path d="M396.38,114.48h2.93l6.39-8.91V99.73s4.53-.28,4,7.37.05,5.71.05,5.71,9.61,0,10.41.87c.58.61.84,10.16.94,15.33a5.61,5.61,0,0,1-4,5.65,4.06,4.06,0,0,1-1,.14c-2.4,0-14.65-2-14.65-2h-5.06Z" style="fill:#ebebeb"></path><polygon points="388 112.88 389.8 132.91 394.81 132.91 394.81 113.28 388 112.88" style="fill:#ebebeb"></polygon></g><g id="freepik--Mirror--inject-2"><polygon points="119.12 408.6 228.49 408.6 174.72 154.9 62.33 118.5 119.12 408.6" style="fill:#fff"></polygon><path d="M146.78,242.21a47.13,47.13,0,0,0,2.77-5.05c.41-1.34-4.24-3.32-8.63-5C143.45,234.67,145.54,239.13,146.78,242.21Z" style="fill:none"></path><path d="M112.92,231.89c.12,3.13.13,6,0,8.45-1.09,18.35-14.72,22-14.72,22s.14,1.81.38,4.65a7.19,7.19,0,0,1,3.75.67c3.1,1.55,4.7,5.73,8.13,6.21,1.93.27,3.77-.77,5.44-1.78l9.33-5.63c4.08-2.45,8.36-5.12,10.54-9.35,2.48-4.83,1.4-11.35-2.81-14.78-3-2.46-7.43-3.5-9.13-7a.56.56,0,0,1,0-.12,10.68,10.68,0,0,1-2.27.4A10.36,10.36,0,0,1,112.92,231.89Z" style="fill:#e0e0e0"></path><path d="M112.09,219.87l.23-.35h0a10.31,10.31,0,0,1,2.68-2.71l.07,0h0a10.28,10.28,0,0,1,4.54-1.7c-2.13-1.07-4.4-2-5.69-3.94-1.45-2.18-1.2-4.9-.86-7.58a22,22,0,0,1-3-1C110.81,207.93,111.54,214,112.09,219.87Z" style="fill:#e0e0e0"></path><path d="M204.14,377.49c9.15-3.32,12.6-11.5,12.55-22.06l-6.56-30.94c-10.67-30.44-30.6-62.27-30.6-62.27.22-1.42-13.27-28.51-13.27-28.51s-5-1.72-11.12-3.7c-5.83-1.89-12.66-4-17.22-5.15-2.87-.72-4.84-1.05-5.07-.67-1,1.6-1.93,3.85,1.61,5.46.53.24,1.28.54,2.14.87l4.32,1.63c4.39,1.69,9,3.67,8.63,5a47.13,47.13,0,0,1-2.77,5.05,67.32,67.32,0,0,0-4,7.69c-1,2.34-1.47,4.45-1,5.76,1.6,4.18,15.79,21.39,15.79,21.39l26.9,57.56L160.3,362.84C186,382.71,204.14,377.49,204.14,377.49Z" style="fill:#f5f5f5"></path><path d="M158.34,222.54a10.35,10.35,0,1,0-20.42,2.32c4.56,1.14,11.39,3.26,17.22,5.15A10.29,10.29,0,0,0,158.34,222.54Z" style="fill:#1DE9B6"></path><path d="M140.92,232.15l-4.32-1.63a2.68,2.68,0,0,0-1.4,3.43c1.57,3.86,5,12.06,7.61,16a67.32,67.32,0,0,1,4-7.69C145.54,239.13,143.45,234.67,140.92,232.15Z" style="fill:#ebebeb"></path><path d="M123.5,389.55l12.67-43.8,22.17,19.37,2-2.28,24.24-28.23s-22.14-22.82-31.88-34.34C141,286.42,125.52,281.08,115.1,279c1.11.24.37,27.85-13.46,42.91l17.48,86.68,14,.07Z" style="fill:#1DE9B6"></path><path d="M123.5,389.55l12.67-43.8,22.17,19.37,2-2.28,24.24-28.23s-22.14-22.82-31.88-34.34C141,286.42,125.52,281.08,115.1,279c1.11.24.37,27.85-13.46,42.91l17.48,86.68,14,.07Z" style="fill:#fff;opacity:0.6000000000000001"></path><path d="M98.57,267c-.24-2.84-.38-4.65-.38-4.65l.18,4.29a32,32,0,0,1-7.44.58l2,10.09c2.17,0,4.36,0,6.55.12C99.1,273.44,98.79,269.75,98.57,267Z" style="fill:#f5f5f5"></path><path d="M98.19,262.36s13.63-3.67,14.72-22c.14-2.44.13-5.32,0-8.45a10.31,10.31,0,0,1-.83-12c-.55-5.89-1.28-11.94-2-17.39a22.32,22.32,0,0,1-10.68-9.58A12.11,12.11,0,0,1,98.06,194c-4.65,3.33-10.82,3.19-16.46,4.17a22.58,22.58,0,0,0-4,1.09l2.82,14.39a5,5,0,0,1,1.23.54c.83.51,1.14,1,1,1.18s-.89-.12-2-.36l5.1,26a3,3,0,0,1,.41-1.45,3.43,3.43,0,0,1,.6-.72,5.42,5.42,0,0,1-.64-1.64c-.22-1.13,0-1.83.21-1.83s.52,1.33,1.54,2.73a4.83,4.83,0,0,1,1-.33,4.48,4.48,0,0,1,4.19,1.27l.12.07a.84.84,0,0,1,.09.93,2.9,2.9,0,0,1-.64.81l0,0c1.31.21,2.31.11,2.34.33s-.59.59-1.8.74a6.8,6.8,0,0,1-1.67,0,7,7,0,0,1-1.85,1.16,3,3,0,0,1-3.35-.5,2.33,2.33,0,0,1-.3-.53l4,20.43A40.11,40.11,0,0,0,98.19,262.36Zm4.93-44.89a2.23,2.23,0,0,1-2.59-1.86,2.33,2.33,0,0,1,2-2.56,2.24,2.24,0,0,1,2.6,1.86A2.34,2.34,0,0,1,103.12,217.47Zm4.5-6.71c.82.51,1.14,1,1,1.18-.26.33-2.14-.79-4.64-.54s-4.19,1.68-4.5,1.4c-.14-.12.1-.7.84-1.36a6.42,6.42,0,0,1,3.56-1.49A6.18,6.18,0,0,1,107.62,210.76ZM93.57,233c0-.14,1.49-.56,4-1.12.63-.13,1.22-.32,1.28-.76a3.23,3.23,0,0,0-.61-1.85l-2.36-4.66c-3.3-6.65-5.75-12.14-5.48-12.27s3.16,5.15,6.45,11.8l2.29,4.7a3.71,3.71,0,0,1,.57,2.46,1.57,1.57,0,0,1-1,1,4.63,4.63,0,0,1-1.07.25C95.16,233,93.59,233.16,93.57,233Z" style="fill:#f5f5f5"></path><path d="M102.53,213.05a2.33,2.33,0,0,0-2,2.56,2.23,2.23,0,0,0,2.59,1.86,2.34,2.34,0,0,0,2-2.56A2.24,2.24,0,0,0,102.53,213.05Z" style="fill:#e0e0e0"></path><path d="M100.33,211.44c-.74.66-1,1.24-.84,1.36.31.28,2-1.18,4.5-1.4s4.38.87,4.64.54c.13-.15-.19-.67-1-1.18a6.18,6.18,0,0,0-3.73-.81A6.42,6.42,0,0,0,100.33,211.44Z" style="fill:#e0e0e0"></path><path d="M82.7,215.41c.12-.15-.19-.67-1-1.18a5,5,0,0,0-1.23-.54l.27,1.36C81.81,215.29,82.54,215.61,82.7,215.41Z" style="fill:#e0e0e0"></path><path d="M98.74,232.35a1.57,1.57,0,0,0,1-1,3.71,3.71,0,0,0-.57-2.46l-2.29-4.7c-3.29-6.65-6.18-11.93-6.45-11.8s2.18,5.62,5.48,12.27l2.36,4.66a3.23,3.23,0,0,1,.61,1.85c-.06.44-.65.63-1.28.76-2.49.56-4,1-4,1.12s1.59,0,4.1-.41A4.63,4.63,0,0,0,98.74,232.35Z" style="fill:#e0e0e0"></path><path d="M98.37,266.65l-.18-4.29a40.11,40.11,0,0,1-8.17.19l.91,4.68A32,32,0,0,0,98.37,266.65Z" style="fill:#ebebeb"></path><path d="M89.67,243.15A7,7,0,0,0,91.52,242a6.72,6.72,0,0,1-2.84-1.05,6.1,6.1,0,0,1-1.85-2,3.43,3.43,0,0,0-.6.72,3,3,0,0,0-.41,1.45l.2,1a2.33,2.33,0,0,0,.3.53A3,3,0,0,0,89.67,243.15Z" style="fill:#ebebeb"></path><path d="M89.58,239.8A7.41,7.41,0,0,0,92.65,241l0,0a2.9,2.9,0,0,0,.64-.81.84.84,0,0,0-.09-.93l-.12-.07a4.48,4.48,0,0,0-4.19-1.27,4.83,4.83,0,0,0-1,.33A6.29,6.29,0,0,0,89.58,239.8Z" style="fill:#ebebeb"></path><path d="M88.68,240.94A6.72,6.72,0,0,0,91.52,242a6.8,6.8,0,0,0,1.67,0c1.21-.15,1.86-.58,1.8-.74s-1-.12-2.34-.33a7.41,7.41,0,0,1-3.07-1.16,6.29,6.29,0,0,1-1.64-1.61c-1-1.4-1.26-2.77-1.54-2.73s-.43.7-.21,1.83a5.42,5.42,0,0,0,.64,1.64A6.1,6.1,0,0,0,88.68,240.94Z" style="fill:#e0e0e0"></path><path d="M129.38,231.2a8.53,8.53,0,0,0,1.65-3.89h0a10.3,10.3,0,0,1-1.65,3.89Z" style="fill:#fff;opacity:0.4"></path><path d="M112.32,219.51h0l0,0Z" style="fill:#e0e0e0"></path><path d="M112.32,219.51h0l0,0Z" style="fill:#fff;opacity:0.4"></path><path d="M115.09,216.74l-.07,0,.08,0Z" style="fill:#e0e0e0"></path><path d="M115.09,216.74l-.07,0,.08,0Z" style="fill:#fff;opacity:0.4"></path><path d="M120.27,215l-.63.06a10.28,10.28,0,0,0-4.54,1.7l-.08,0a26,26,0,0,0-2.68,2.71l0,0-.23.35a10.35,10.35,0,0,0,9.42,15.76,10.68,10.68,0,0,0,2.27-.4A10.34,10.34,0,0,0,120.27,215Z" style="fill:#1DE9B6"></path><path d="M158.34,222.54a10.35,10.35,0,1,0-20.42,2.32c4.56,1.14,11.39,3.26,17.22,5.15A10.29,10.29,0,0,0,158.34,222.54Z" style="fill:#fff;opacity:0.6000000000000001"></path><path d="M120.27,215l-.63.06a10.28,10.28,0,0,0-4.54,1.7l-.08,0a26,26,0,0,0-2.68,2.71l0,0-.23.35a10.35,10.35,0,0,0,9.42,15.76,10.68,10.68,0,0,0,2.27-.4A10.34,10.34,0,0,0,120.27,215Z" style="fill:#fff;opacity:0.6000000000000001"></path><path d="M115.1,279H115c-3.41-.59-6.93-1-10.49-1.27-1.69-.12-3.38-.22-5.08-.29-2.19-.08-4.38-.12-6.55-.12l8.73,44.6C115.47,306.86,116.21,279.25,115.1,279Z" style="fill:#f5f5f5"></path><path d="M98.06,194a12.11,12.11,0,0,0,1.33-1.14c-.33-.61-.66-1.22-.93-1.85l-3.25-16.36a11.32,11.32,0,0,1,4.81-.19,7.87,7.87,0,0,0-2.19-1.67c-2.9-1.46-6.35-1.31-9.52-.64s-6.24,1.82-9.45,2.29a32.08,32.08,0,0,1-6,.24l4.81,24.58a22.58,22.58,0,0,1,4-1.09C87.24,197.23,93.41,197.37,98.06,194Z" style="fill:#e0e0e0"></path><path d="M95.21,174.69l3.25,16.36c.27.63.6,1.24.93,1.85a22.32,22.32,0,0,0,10.68,9.58,22,22,0,0,0,3,1l.28.09a53.64,53.64,0,0,0-.08-13.4,21.2,21.2,0,0,0-5.75-11.89A14.27,14.27,0,0,0,100,174.5,11.32,11.32,0,0,0,95.21,174.69Z" style="fill:#e0e0e0"></path><polygon points="119.01 411.77 68.3 124.95 174.61 158.07 228.38 411.77 235.68 411.77 180.08 151.72 58.86 112.79 50.65 117.91 102.61 412.18 119.01 411.77" style="fill:#263238"></polygon><polygon points="102.61 412.18 235.68 411.77 234.19 404.84 101.31 404.84 102.61 412.18" style="fill:#263238"></polygon></g><g id="freepik--Character--inject-2"><path d="M400.2,321.38l17,24.44-8.18-63,24.34-9.6S464.11,391,422.91,392.62c0,0-28.51-.78-49.79-50.13Z" style="fill:#ffbe9d"></path><path d="M411.17,296.71s-.68-2.91-1.9-11.36l-9.73-18.06s2-3.87,7,4.12c2.27,3.64,9.56,1.93,8.22-3.83s-8.91-8.2-13.41-2.4c0,0-3,.36-3.37-2s6.21-8.23,12-6.68a17.35,17.35,0,0,1,6.43,3.44s-1.67-19.17-.12-19.38,3.75.92,5.4,22c0,0,.28-16.63.55-18.76s3.12-3.63,3.59,1.69c.05.6,1.47,16.9,1.47,16.9s1.62-10.84,1.8-11.7c.48-2.29,2.73-2.11,3,.91.22,2.28,1.17,12,1.17,12l2.08,30.07.18,0" style="fill:#ffbe9d"></path><path d="M427.51,272.74c0,.07-.54.45-1.28,1.29a8.53,8.53,0,0,0-2,3.92l-.1.47-.33-.34a10.51,10.51,0,0,0-1.26-1.11,10.69,10.69,0,0,0-5.18-2c-1.44-.16-2.34,0-2.35-.09a5.29,5.29,0,0,1,2.38-.28,10.09,10.09,0,0,1,5.46,2,9.93,9.93,0,0,1,1.32,1.17l-.44.12A8.18,8.18,0,0,1,426,273.8,3.9,3.9,0,0,1,427.51,272.74Z" style="fill:#eb996e"></path><path d="M368.16,412.18l-2.94-7a55.36,55.36,0,0,1-3.2-32.24l6.17-30.82,16.69,29h0l30.29-30.4h0L401.37,317c-25.8-44.4-58.83-37.38-58.83-37.38L299,276.23s-29.71-.43-49.13,22.55c-9.73,11.52-30.65,31.73-30.65,31.73l25,33.12,22.18-19.37,8.35,28.87a54.6,54.6,0,0,1,.12,29.89l-2.58,9.16Z" style="fill:#1DE9B6"></path><path d="M292,185a26.47,26.47,0,0,0-2.77,14.86c.36,3.33,1.28,7-.57,9.8-2.26,3.39-7.54,3.68-9.75,7.09-3.18,4.94,2.43,11.88-.13,17.16-1.69,3.5-6.12,4.54-9.13,7-4.2,3.43-5.29,9.95-2.8,14.78,2.18,4.23,6.45,6.89,10.53,9.35l9.34,5.63c1.67,1,3.51,2.05,5.43,1.78,3.44-.48,5-4.66,8.14-6.21,3.84-1.92,8.3.75,12.58,1a11.2,11.2,0,0,0,11.9-11.92" style="fill:#263238"></path><path d="M302.47,283c1-10.75,1.91-22.09,1.91-22.09s-13.62-3.67-14.71-22c-1-17.5,5.71-57,5.71-57h0c20.74-6.17,43.82,1.56,56.47,18.92h0L342.08,288c-1.13,10.13-10.74,17.22-21.57,15.92h0C309.57,302.57,301.5,293.21,302.47,283Z" style="fill:#ffbe9d"></path><path d="M297.45,213.42a2.33,2.33,0,0,0,2,2.56,2.24,2.24,0,0,0,2.6-1.86,2.33,2.33,0,0,0-2-2.56A2.24,2.24,0,0,0,297.45,213.42Z" style="fill:#263238"></path><path d="M294,210.45c.25.33,2.14-.79,4.63-.54s4.2,1.68,4.5,1.4c.15-.12-.09-.7-.83-1.36a6.46,6.46,0,0,0-3.57-1.49,6.1,6.1,0,0,0-3.72.81C294.13,209.78,293.82,210.3,294,210.45Z" style="fill:#263238"></path><path d="M322.94,216.37a2.33,2.33,0,0,0,2,2.56,2.24,2.24,0,0,0,2.6-1.86,2.34,2.34,0,0,0-2-2.56A2.23,2.23,0,0,0,322.94,216.37Z" style="fill:#263238"></path><path d="M319.88,213.92c.26.33,2.14-.8,4.64-.54s4.19,1.67,4.49,1.4-.09-.7-.83-1.36a6.38,6.38,0,0,0-3.56-1.49,6,6,0,0,0-3.73.81C320.07,213.25,319.75,213.77,319.88,213.92Z" style="fill:#263238"></path><path d="M309,231.52c0-.14-1.5-.56-4-1.13-.63-.12-1.22-.31-1.28-.76a3.15,3.15,0,0,1,.61-1.84c.75-1.48,1.53-3,2.36-4.66,3.29-6.65,5.74-12.14,5.47-12.27s-3.15,5.15-6.45,11.8c-.79,1.64-1.56,3.2-2.28,4.7a3.71,3.71,0,0,0-.58,2.46,1.61,1.61,0,0,0,1,1,4.45,4.45,0,0,0,1.06.25C307.42,231.5,309,231.66,309,231.52Z" style="fill:#263238"></path><path d="M304.38,260.87a46.18,46.18,0,0,0,24.84-4.08s-7.09,11.84-25,8.37Z" style="fill:#eb996e"></path><path d="M309.47,237.64a4.5,4.5,0,0,1,4.2-1.27,4.11,4.11,0,0,1,2.68,1.79,2.63,2.63,0,0,1-.1,3,3,3,0,0,1-3.35.5,9.48,9.48,0,0,1-3-2.22,2.89,2.89,0,0,1-.64-.8.84.84,0,0,1,.1-.93" style="fill:#eb996e"></path><path d="M316.18,234c-.4-.06-.68,2.64-3.18,4.34s-5.36,1.11-5.42,1.49c-.05.16.59.59,1.81.74a6.78,6.78,0,0,0,4.5-1.09,5.9,5.9,0,0,0,2.5-3.65C316.6,234.67,316.37,234,316.18,234Z" style="fill:#263238"></path><path d="M343.25,220A10.91,10.91,0,0,1,349,221a7.61,7.61,0,0,1,3.88,4.29,7.9,7.9,0,0,1-.52,5.78,13.29,13.29,0,0,1-3.77,4.53,9.05,9.05,0,0,1-3.74,2,4.33,4.33,0,0,1-4-1" style="fill:#ffbe9d"></path><path d="M343.16,231.85c-.23.05.5,1.3,2.31,1a3.8,3.8,0,0,0,2.37-1.69,8.68,8.68,0,0,0,1.28-3.11,5.12,5.12,0,0,0-.48-3.49,3.39,3.39,0,0,0-2.39-1.75c-1.82-.22-2.5,1-2.3,1.05s.9-.42,2.06,0,2.09,2,1.65,3.93-1.36,3.71-2.46,4.06S343.3,231.7,343.16,231.85Z" style="fill:#eb996e"></path><path d="M300.1,177.36a13.21,13.21,0,0,0,4.42,15.19c4.65,3.33,10.82,3.19,16.45,4.17s11.92,4.35,12.3,10.06c.23,3.45-1.84,7-.59,10.26,1.46,3.78,6.62,4.89,8.45,8.51,2.92,5.82-4.72,12.19-3.64,18.61.65,3.81,4.24,6.57,5,10.36,1.12,5.38-3.57,11.74-.1,16,2.67,3.26,7.91,2.17,11.64.2s7.73-4.61,11.8-3.51c2.45.65,4.34,2.57,6.58,3.74a11.72,11.72,0,0,0,16.64-13.82c-1-3.25-3.32-5.88-5.27-8.66s-3.63-6.11-3-9.45c.47-2.56,2.21-4.67,3.53-6.92s2.22-5.12.95-7.4c-2.21-4-8.86-2.9-11.72-6.47-3.92-4.9,3.06-12.48.42-18.18-3-6.45-14.74-3.93-17.74-10.38-1.1-2.35-.54-5.12-1.09-7.66-1.24-5.79-7.79-8.85-13.7-9.21s-11.87,1.06-17.72.19c-3.21-.48-6.28-1.63-9.45-2.3s-6.62-.81-9.52.65-5,4.89-4,8" style="fill:#263238"></path><path d="M304.12,189.56a22.18,22.18,0,0,1-14.92,12.56,54.12,54.12,0,0,1,.09-13.4A21.2,21.2,0,0,1,295,176.83c3.22-3.11,8-4.79,12.32-3.63" style="fill:#263238"></path><path d="M377.41,270.28a3.16,3.16,0,0,0,.91-1.08,4.19,4.19,0,0,0-.34-3.87,5.57,5.57,0,0,0-2.12-2,17.63,17.63,0,0,0-3.24-1.34,18.65,18.65,0,0,1-3.79-1.56,5.74,5.74,0,0,1-2.89-3.55,7.3,7.3,0,0,1,1-5c.78-1.58,1.83-3.09,2.52-4.81a12.66,12.66,0,0,0-1.24-11.31,11.83,11.83,0,0,0-4.62-4.27c-1.95-1-4.18-1.48-6.32-2.42a9.33,9.33,0,0,1-3-2,6.13,6.13,0,0,1-1.62-3.26c-.4-2.47.37-4.86.65-7.24a13.54,13.54,0,0,0-.92-7,17.93,17.93,0,0,0-3.82-5.72,26.59,26.59,0,0,0-11.32-6.45,98.78,98.78,0,0,0-11.7-2.6,76.57,76.57,0,0,1-10.22-2.4,29.9,29.9,0,0,1-7.79-3.78,21.39,21.39,0,0,1-4.75-4.49,15,15,0,0,1-2.08-3.57,9.37,9.37,0,0,1-.47-1.36s.18.46.57,1.32a16.1,16.1,0,0,0,2.14,3.49,25.3,25.3,0,0,0,12.5,8,77,77,0,0,0,10.17,2.33,97.25,97.25,0,0,1,11.77,2.57,26.83,26.83,0,0,1,11.54,6.54,18.62,18.62,0,0,1,3.94,5.89,14,14,0,0,1,1,7.22c-.3,2.44-1,4.81-.66,7.1a5.57,5.57,0,0,0,1.49,3,8.57,8.57,0,0,0,2.8,1.86c2.08.92,4.31,1.44,6.33,2.45a12.16,12.16,0,0,1,4.8,4.46,13.07,13.07,0,0,1,1.24,11.72c-.73,1.78-1.79,3.28-2.56,4.83a7,7,0,0,0-1,4.69,5.41,5.41,0,0,0,2.71,3.35,18.9,18.9,0,0,0,3.71,1.57,17,17,0,0,1,3.28,1.4,5.81,5.81,0,0,1,2.17,2.08,4.28,4.28,0,0,1,.25,4A2.28,2.28,0,0,1,377.41,270.28Z" style="fill:#455a64"></path><path d="M373.12,214.36s-.07,0-.22.06l-.66.14c-.59.1-1.46.26-2.59.36a13.82,13.82,0,0,1-4.13-.16,8.15,8.15,0,0,1-4.68-2.81,15.82,15.82,0,0,1-2.95-5.95,72.94,72.94,0,0,0-2.16-7.24,17,17,0,0,0-5-6.5A26,26,0,0,0,343,188c-5.8-2-11.75-2.27-17.05-2.77-2.66-.23-5.2-.49-7.55-.89a39.85,39.85,0,0,1-6.44-1.61,24.65,24.65,0,0,1-8.36-4.65,14.72,14.72,0,0,1-2.38-2.59,1,1,0,0,1,.18.16c.12.13.27.3.46.49a18.23,18.23,0,0,0,1.88,1.78,24.9,24.9,0,0,0,8.34,4.46,39.68,39.68,0,0,0,6.39,1.53c2.34.39,4.86.63,7.52.85,5.3.46,11.27.7,17.18,2.75a26.77,26.77,0,0,1,7.93,4.36,17.43,17.43,0,0,1,5.07,6.72,67.57,67.57,0,0,1,2.13,7.3,15.75,15.75,0,0,0,2.82,5.84,8,8,0,0,0,4.46,2.76,14,14,0,0,0,4.06.24c1.12-.07,2-.19,2.58-.27A6.69,6.69,0,0,1,373.12,214.36Z" style="fill:#455a64"></path><path d="M277.81,262.65s-.13,0-.36-.12a7.64,7.64,0,0,1-1-.5,10,10,0,0,1-2.87-2.74,10.55,10.55,0,0,1-2-5.54,10.09,10.09,0,0,1,2.28-6.8,10.51,10.51,0,0,1,6.13-3.76c2.21-.37,4.21-.23,5.74-.82a4.41,4.41,0,0,0,2.68-2.53,3.85,3.85,0,0,0,.14-1.39s.06.11.12.36a2.66,2.66,0,0,1-.06,1.09,4.58,4.58,0,0,1-2.75,2.82c-1.61.67-3.67.55-5.78.94a10.2,10.2,0,0,0-5.81,3.61,9.77,9.77,0,0,0-2.21,6.45,10.66,10.66,0,0,0,4.47,8.14C277.36,262.39,277.83,262.6,277.81,262.65Z" style="fill:#455a64"></path><path d="M287.48,277.52c-1.5.26.32,50.5,33.22,52.4,31.15,1.79,33.69-49.56,33.69-49.56S316.71,272.44,287.48,277.52Z" style="fill:#ffbe9d"></path><circle cx="254.58" cy="221.05" r="10.35" transform="translate(-4.28 437.07) rotate(-80.81)" style="fill:#1DE9B6"></circle><path d="M276.84,222a61.36,61.36,0,0,1-7.92.26A61.23,61.23,0,0,1,261,222a61.23,61.23,0,0,1,7.92-.26A61.36,61.36,0,0,1,276.84,222Z" style="fill:#1DE9B6"></path><path d="M292,224.43a10.34,10.34,0,1,1-9.7-11A10.35,10.35,0,0,1,292,224.43Z" style="fill:#1DE9B6"></path><path d="M315.69,227.45a6.16,6.16,0,0,0,1.42-.29,3.92,3.92,0,0,0,2.45-2.78,3.67,3.67,0,0,0-.46-2.54,3.6,3.6,0,0,0-2.34-1.74,9,9,0,0,0-3.4.15l-3.73.63c-5.11.86-9.75,1.6-13.11,2.12l-4,.58a8.77,8.77,0,0,1-1.47.15,7.14,7.14,0,0,1,1.44-.35l3.95-.74c3.34-.61,8-1.42,13.08-2.27l3.74-.63a9.46,9.46,0,0,1,3.59-.11,4.15,4.15,0,0,1,3.05,4.82,3.92,3.92,0,0,1-1.21,2,4,4,0,0,1-1.54.87,3.13,3.13,0,0,1-1.1.16C315.82,227.5,315.69,227.47,315.69,227.45Z" style="fill:#1DE9B6"></path><path d="M287.48,215.25l-15.93,10.57a8.58,8.58,0,0,0,1.64,3.89L290.25,218A24.29,24.29,0,0,0,287.48,215.25Z" style="fill:#fff;opacity:0.4"></path><path d="M220.15,331,218,333.12l26.9-57.57-18.2-21.19S159.68,361.93,198.43,376c0,0,28,3.56,44-14.71Z" style="fill:#ffbe9d"></path><path d="M266.14,228.44a2.62,2.62,0,0,1,1.6,4.44c-3.85,4-13.71,14-15.8,13.2-2.62-1-.36-7.16-.36-7.16s8.82-10.77,14.48-10.49Z" style="fill:#eb996e"></path><path d="M223.05,260.73c-.18-1.16,8.74-19.35,12-26.06a6.61,6.61,0,0,1,3.83-3.34c7.72-2.6,30-10,30.79-8.63,1,1.6,1.93,3.85-1.6,5.46s-15.74,5.38-15.1,7.51,9.32,14.33,7.71,18.5-15.79,21.38-15.79,21.38Z" style="fill:#ffbe9d"></path><path d="M253.21,236.13c0,.09-.68,0-1.69.32a14.33,14.33,0,0,0-3.65,2,10.54,10.54,0,0,0-2.59,3.18,5.41,5.41,0,0,1-1,1.44,6.56,6.56,0,0,1,.69-1.62,9.24,9.24,0,0,1,2.61-3.42,11.54,11.54,0,0,1,3.87-1.88A2.68,2.68,0,0,1,253.21,236.13Z" style="fill:#eb996e"></path><path d="M255.55,240.09a18.6,18.6,0,0,0-3.5,2.94,18.29,18.29,0,0,0-2.26,4,8.27,8.27,0,0,1,5.76-6.91Z" style="fill:#eb996e"></path></g><g id="freepik--Floor--inject-2"><path d="M461.84,412.18c0,.14-90.43.26-202,.26s-202-.12-202-.26,90.41-.26,202-.26S461.84,412,461.84,412.18Z" style="fill:#263238"></path></g><g id="freepik--Stars--inject-2"><path d="M238,184.77c0,.35-2.53.63-5.65.63s-5.65-.28-5.65-.63,2.53-.62,5.65-.62S238,184.43,238,184.77Z" style="fill:#455a64"></path><path d="M244,169.4c.34,0,.62,2.57.62,5.73s-.28,5.74-.62,5.74-.63-2.57-.63-5.74S243.69,169.4,244,169.4Z" style="fill:#455a64"></path><path d="M250.43,184.4c0-.34,2.53-.62,5.65-.62s5.65.28,5.65.62-2.53.63-5.65.63S250.43,184.75,250.43,184.4Z" style="fill:#455a64"></path><path d="M244.43,199.77c-.35,0-.63-2.57-.63-5.73s.28-5.73.63-5.73.62,2.56.62,5.73S244.77,199.77,244.43,199.77Z" style="fill:#455a64"></path><path d="M253.56,193.18c-.26.22-1.38-.68-2.49-2s-1.79-2.58-1.53-2.8,1.38.68,2.49,2S253.83,193,253.56,193.18Z" style="fill:#455a64"></path><path d="M253,175.75c.25.24-.49,1.38-1.64,2.54s-2.28,1.91-2.53,1.67.49-1.38,1.64-2.55S252.79,175.51,253,175.75Z" style="fill:#455a64"></path><path d="M240.08,180.19c-.22.27-1.29-.26-2.38-1.17s-1.81-1.87-1.59-2.13,1.29.25,2.39,1.17S240.3,179.92,240.08,180.19Z" style="fill:#455a64"></path><path d="M239.57,187.87c.26.23-.38,1.35-1.43,2.5s-2.1,1.89-2.35,1.66.38-1.35,1.43-2.5S239.32,187.64,239.57,187.87Z" style="fill:#455a64"></path><path d="M398.22,199.88c0,.19-1.43.35-3.2.35s-3.21-.16-3.21-.35,1.43-.36,3.21-.36S398.22,199.68,398.22,199.88Z" style="fill:#455a64"></path><path d="M401.63,191.15c.2,0,.35,1.46.35,3.26s-.15,3.25-.35,3.25-.36-1.46-.36-3.25S401.43,191.15,401.63,191.15Z" style="fill:#455a64"></path><path d="M405.26,199.67c0-.2,1.43-.36,3.2-.36s3.21.16,3.21.36-1.43.35-3.21.35S405.26,199.86,405.26,199.67Z" style="fill:#455a64"></path><path d="M401.85,208.39c-.2,0-.35-1.45-.35-3.25s.15-3.26.35-3.26.36,1.46.36,3.26S402.05,208.39,401.85,208.39Z" style="fill:#455a64"></path><path d="M407,204.65c-.16.13-.79-.38-1.42-1.14s-1-1.47-.86-1.59.78.38,1.41,1.14S407.19,204.52,407,204.65Z" style="fill:#455a64"></path><path d="M406.74,194.75c.13.14-.28.79-.94,1.45s-1.29,1.08-1.43.94.28-.78.93-1.44S406.6,194.62,406.74,194.75Z" style="fill:#455a64"></path><path d="M399.38,197.28c-.12.15-.73-.15-1.35-.67s-1-1.06-.9-1.21.73.15,1.35.67S399.51,197.13,399.38,197.28Z" style="fill:#455a64"></path><path d="M399.09,201.64c.15.13-.21.76-.81,1.42s-1.19,1.07-1.34.94.22-.77.82-1.42S399,201.51,399.09,201.64Z" style="fill:#455a64"></path><path d="M391.73,276.18l.37.88a6.28,6.28,0,0,0,3.43,3.4l1,.39-.92.37a6.28,6.28,0,0,0-3.46,3.46l-.26.65-.39-.81a6.2,6.2,0,0,0-3.5-3.17l-.83-.31,1.09-.53a6.28,6.28,0,0,0,3-3.23Z" style="fill:#455a64"></path><path d="M300.15,131.21l.37.88a6.28,6.28,0,0,0,3.43,3.4l1,.39-.92.37a6.31,6.31,0,0,0-3.46,3.46l-.26.65-.38-.81a6.3,6.3,0,0,0-3.5-3.17l-.84-.31,1.09-.53a6.26,6.26,0,0,0,3.06-3.23Z" style="fill:#455a64"></path></g></svg>